<?xml version="1.0" encoding="UTF-8"?>
<svg width="88px" height="88px" viewBox="0 0 88 88" version="1.1" xmlns="http://www.w3.org/2000/svg" xmlns:xlink="http://www.w3.org/1999/xlink">
    <!-- Generator: Sketch 53.2 (72643) - https://sketchapp.com -->
    <title>Untitled 2</title>
    <desc>Created with Sketch.</desc>
    <g id="Page-1" stroke="none" stroke-width="1" fill="none" fill-rule="evenodd">
        <g id="github-2" fill="#008DD2">
            <g id="github">
                <path d="M15.2737,72.7261 C-0.5912,56.8612 -0.5911,31.1388 15.274,15.2738 C31.1388,-0.5912 56.8612,-0.5912 72.726,15.2738 C88.5911,31.1388 88.5911,56.8611 72.7261,72.726 C56.8612,88.591 31.1387,88.5912 15.2737,72.7261 Z M13.0643,74.9358 C-4.0209,57.8504 -4.0209,30.1498 13.0644,13.0643 C30.1498,-4.0208 57.8504,-4.0208 74.9358,13.0643 C92.021,30.1497 92.0209,57.8503 74.9357,74.9356 C57.8502,92.0209 30.1497,92.021 13.0643,74.9358 Z M44.0895,65.8742 C43.304,65.8689 42.5262,65.8308 41.7578,65.761 C39.8693,65.5686 38.0522,65.1358 36.337,64.494 C37.1139,64.3708 37.3797,63.7456 37.3797,63.1739 C37.3797,62.5191 37.3935,60.6907 37.3797,58.3891 C29.715,60.0562 28.1264,54.7601 28.1264,54.7601 C26.8743,51.575 25.0688,50.7287 25.0688,50.7287 C22.567,49.0195 25.2564,49.0512 25.2564,49.0512 C28.0215,49.2466 29.4792,51.893 29.4792,51.893 C31.9375,56.1007 35.9278,54.8861 37.497,54.1829 C37.7485,52.4013 38.462,51.1863 39.2491,50.4982 C33.1301,49.8018 26.6966,47.4382 26.6966,36.878 C26.6966,33.8679 27.7699,31.4089 29.5325,29.4838 C29.2481,28.7869 28.3008,25.9843 29.8029,22.1888 C29.8029,22.1888 32.1163,21.4485 37.3797,25.0159 C39.5778,24.4045 41.9366,24.0998 44.2793,24.089 C46.6208,24.0998 48.9781,24.4045 51.1787,25.0159 C56.4412,21.45 58.7531,22.1888 58.7531,22.1888 C60.2538,25.9843 59.3083,28.7869 59.0256,29.4838 C60.7885,31.4089 61.859,33.8679 61.859,36.878 C61.859,47.4665 55.4152,49.795 49.2741,50.4748 C50.2635,51.3279 51.1621,52.9815 51.1621,55.5522 C51.1621,58.998 51.1621,62.2753 51.1621,63.1802 C51.1621,63.6664 51.3555,64.1869 51.8889,64.408 C49.468,65.3448 46.8387,65.8632 44.0895,65.8742 L44.0895,65.8742 Z" id="Shape"></path>
            </g>
        </g>
    </g>
</svg>